<svg width="60" height="60" viewBox="0 0 60 60" fill="none" xmlns="http://www.w3.org/2000/svg">
<path d="M12.5001 45H23.1001C23.4291 45.0019 23.7552 44.9388 24.0598 44.8144C24.3644 44.69 24.6415 44.5067 24.8751 44.275L42.1751 26.95L49.2751 20C49.5094 19.7676 49.6954 19.4911 49.8223 19.1864C49.9492 18.8818 50.0146 18.555 50.0146 18.225C50.0146 17.8949 49.9492 17.5682 49.8223 17.2635C49.6954 16.9589 49.5094 16.6824 49.2751 16.45L38.6751 5.72497C38.4427 5.49065 38.1662 5.30466 37.8615 5.17774C37.5569 5.05082 37.2301 4.98547 36.9001 4.98547C36.57 4.98547 36.2433 5.05082 35.9386 5.17774C35.634 5.30466 35.3575 5.49065 35.1251 5.72497L28.0751 12.8L10.7251 30.125C10.4934 30.3586 10.31 30.6356 10.1856 30.9402C10.0612 31.2448 9.99816 31.571 10.0001 31.9V42.5C10.0001 43.163 10.2635 43.7989 10.7323 44.2677C11.2011 44.7366 11.837 45 12.5001 45ZM36.9001 11.025L43.9751 18.1L40.4251 21.65L33.3501 14.575L36.9001 11.025ZM15.0001 32.925L29.8251 18.1L36.9001 25.175L22.0751 40H15.0001V32.925ZM52.5001 50H7.50006C6.83702 50 6.20114 50.2634 5.73229 50.7322C5.26345 51.201 5.00006 51.8369 5.00006 52.5C5.00006 53.163 5.26345 53.7989 5.73229 54.2677C6.20114 54.7366 6.83702 55 7.50006 55H52.5001C53.1631 55 53.799 54.7366 54.2678 54.2677C54.7367 53.7989 55.0001 53.163 55.0001 52.5C55.0001 51.8369 54.7367 51.201 54.2678 50.7322C53.799 50.2634 53.1631 50 52.5001 50Z" fill="#008000"/>
</svg>
